<svg xmlns="http://www.w3.org/2000/svg" width="188.406" height="109" viewBox="0 0 188.406 109">
  <g id="Group_404" data-name="Group 404" transform="translate(3.792)">
    <path id="Path_252" data-name="Path 252" d="M-1358.792-4372h126.8l61.609-109h-188.406Z" transform="translate(1355 4481)" fill="#fff"/>
    <g id="Group_402" data-name="Group 402" transform="translate(-3088 6839)">
      <g id="Group_401" data-name="Group 401" transform="translate(3117 -6820)">
        <path id="Path_253" data-name="Path 253" d="M339.689,525.815,333.6,550.882h10.2l.761-5.341h4.413l.761,5.341h10.273l-6.24-25.067Zm6.924,4.97h.3l1.6,11.423h-3.577l1.674-11.423Z" transform="translate(-319.372 -500.083)" fill="#004990" fill-rule="evenodd"/>
        <path id="Path_254" data-name="Path 254" d="M378.624,525.815v3.334H383.8v21.733h10.577V529.149h5.174v-3.334Z" transform="translate(-337.954 -500.083)" fill="#004990"/>
        <path id="Path_255" data-name="Path 255" d="M419.947,525.815l-6.088,25.067h10.2l.762-5.341h4.412l.762,5.341h10.271l-6.239-25.067Zm6.925,4.97h.3l1.6,11.423H425.2l1.675-11.423Z" transform="translate(-352.496 -500.083)" fill="#004990" fill-rule="evenodd"/>
        <path id="Path_256" data-name="Path 256" d="M435.236,503.984H412.664l11-20.914h12.351l.58,8.924h6.769l-8.123,11.991Z" transform="translate(-352.003 -482.441)" fill="#004990"/>
        <path id="Path_257" data-name="Path 257" d="M313.383,487.678A46.4,46.4,0,0,1,331.507,484a53.467,53.467,0,0,0,12.069-1.987h-34.2l4.011,5.667Z" transform="translate(-309.372 -482.005)" fill="#be2f37"/>
        <path id="Path_258" data-name="Path 258" d="M328.764,500.825a46.633,46.633,0,0,1,17.057-3.268c5.52,0,17.062-2.258,25.091-7.779a78.972,78.972,0,0,1,10.284-5.865l.965-1.913H367.657c-8.029,5.52-19.577,7.779-25.1,7.779a46.9,46.9,0,0,0-18.818,3.988l5.022,7.059Z" transform="translate(-315.303 -482)" fill="#be2f37"/>
        <path id="Path_259" data-name="Path 259" d="M394.757,513.7l3.811-7.681c-.46.3-1,.638-1.425.933-4.855,3.338-11.368,5.574-16.685,6.748Z" transform="translate(-338.711 -491.915)" fill="#be2f37"/>
        <path id="Path_260" data-name="Path 260" d="M386.193,574.223l-1.677,5.185h-5.532l4.51,3.354-1.754,5.32,4.453-3.276,4.453,3.276-1.735-5.32,4.472-3.354h-5.551l-1.639-5.185Zm-13.983.006,14.1,20.587,13.536-20.587Z" transform="translate(-335.307 -520.062)" fill="#004990" fill-rule="evenodd"/>
        <path id="Path_261" data-name="Path 261" d="M405.505,601.492a2.662,2.662,0,1,0,2.662,2.662,2.669,2.669,0,0,0-2.662-2.662Zm-.008.43a2.233,2.233,0,1,1-2.225,2.225,2.233,2.233,0,0,1,2.225-2.225Zm-.992,3.726h.577v-1.2h.522c.211,0,.267.085.31.254,0,.042.1.8.113.944h.634a2.9,2.9,0,0,1-.156-.789c-.056-.381-.084-.648-.492-.677a.685.685,0,0,0,.563-.732c0-.789-.691-.789-1.042-.789h-1.028v2.986Zm.563-2.508h.478c.155,0,.437,0,.437.409a.4.4,0,0,1-.45.422h-.465v-.831Z" transform="translate(-347.949 -531.317)" fill="#004990" fill-rule="evenodd"/>
      </g>
    </g>
  </g>
</svg>
